<svg width="50" height="50" viewBox="0 0 50 50" fill="none" xmlns="http://www.w3.org/2000/svg">
<path d="M27.0854 41.5378C35.3069 40.5126 41.6688 33.4992 41.6688 25.0001C41.6688 15.7953 34.2069 8.33341 25.0021 8.33341C15.7973 8.33341 8.33537 15.7953 8.33537 25.0001C8.33537 33.4992 14.6972 40.5126 22.9188 41.5378V29.1667H18.752V25.0001H22.9188V21.5538C22.9188 18.7679 23.2088 17.7576 23.7535 16.7391C24.2981 15.7206 25.0975 14.9212 26.116 14.3765C26.9133 13.9502 27.9023 13.6928 29.6306 13.5825C30.3165 13.5386 31.2044 13.5945 32.2938 13.7501V17.7084H31.2521C29.341 17.7084 28.5525 17.7987 28.081 18.0508C27.7888 18.2071 27.5842 18.4117 27.4277 18.7041C27.1756 19.1755 27.0854 19.6429 27.0854 21.5538V25.0001H32.2938L31.2521 29.1667H27.0854V41.5378ZM25.0021 45.8334C13.4961 45.8334 4.1687 36.5059 4.1687 25.0001C4.1687 13.4941 13.4961 4.16675 25.0021 4.16675C36.5079 4.16675 45.8354 13.4941 45.8354 25.0001C45.8354 36.5059 36.5079 45.8334 25.0021 45.8334Z" fill="#54BCBF"/>
</svg>
