<svg width="50" height="50" viewBox="0 0 50 50" fill="none" xmlns="http://www.w3.org/2000/svg">
<path d="M25.0021 18.7501C21.5492 18.7501 18.752 21.5482 18.752 25.0001C18.752 28.4528 21.5502 31.2501 25.0021 31.2501C28.4548 31.2501 31.2521 28.452 31.2521 25.0001C31.2521 21.5474 28.454 18.7501 25.0021 18.7501ZM25.0021 14.5834C30.7529 14.5834 35.4188 19.244 35.4188 25.0001C35.4188 30.7511 30.7581 35.4167 25.0021 35.4167C19.2511 35.4167 14.5854 30.7561 14.5854 25.0001C14.5854 19.2491 19.246 14.5834 25.0021 14.5834ZM38.5438 14.0608C38.5438 15.4985 37.3754 16.665 35.9396 16.665C34.5019 16.665 33.3354 15.4967 33.3354 14.0608C33.3354 12.6249 34.5035 11.4584 35.9396 11.4584C37.3735 11.4566 38.5438 12.6249 38.5438 14.0608ZM25.0021 8.33341C19.8469 8.33341 19.0066 8.34706 16.6089 8.45383C14.9753 8.53052 13.8803 8.75023 12.8628 9.14523C11.9587 9.49589 11.3064 9.91462 10.6115 10.6096C9.91389 11.3072 9.49591 11.9576 9.14666 12.8622C8.75074 13.882 8.5311 14.9753 8.45579 16.6066C8.34797 18.9067 8.33537 19.7106 8.33537 25.0001C8.33537 30.1553 8.34902 30.9955 8.45577 33.393C8.5325 35.0259 8.75249 36.1226 9.14654 37.1376C9.49812 38.043 9.9177 38.6967 10.6093 39.3884C11.3096 40.0878 11.9621 40.5072 12.8581 40.853C13.8879 41.2511 14.9822 41.4711 16.6086 41.5463C18.9087 41.654 19.7126 41.6667 25.0021 41.6667C30.1573 41.6667 30.9975 41.653 33.395 41.5463C35.0244 41.4699 36.1219 41.2492 37.1396 40.8555C38.0425 40.5049 38.6983 40.0838 39.3904 39.3928C40.0908 38.6913 40.5094 38.0405 40.8556 37.1424C41.2527 36.1163 41.4731 35.0205 41.5483 33.3936C41.656 31.0934 41.6688 30.2895 41.6688 25.0001C41.6688 19.8449 41.655 19.0047 41.5483 16.6071C41.4717 14.9773 41.251 13.8782 40.8569 12.8609C40.5071 11.9592 40.0869 11.305 39.3925 10.6096C38.6938 9.91081 38.045 9.49368 37.1398 9.14471C36.1208 8.74912 35.0258 8.52916 33.3954 8.45385C31.0954 8.34602 30.2915 8.33341 25.0021 8.33341ZM25.0021 4.16675C30.6617 4.16675 31.3683 4.18758 33.5906 4.29175C35.8075 4.39419 37.3198 4.74487 38.6479 5.2605C40.021 5.79002 41.1808 6.50529 42.3388 7.66327C43.495 8.82127 44.2104 9.98446 44.7417 11.3542C45.2554 12.6806 45.6063 14.1945 45.7104 16.4115C45.8094 18.6338 45.8354 19.3404 45.8354 25.0001C45.8354 30.6599 45.8146 31.3663 45.7104 33.5886C45.6079 35.8057 45.2554 37.3178 44.7417 38.6459C44.2121 40.0192 43.495 41.1788 42.3388 42.3369C41.1808 43.4932 40.0158 44.2084 38.6479 44.7397C37.3198 45.2536 35.8075 45.6042 33.5906 45.7084C31.3683 45.8074 30.6617 45.8334 25.0021 45.8334C19.3423 45.8334 18.6357 45.8126 16.4135 45.7084C14.1965 45.6059 12.6861 45.2536 11.3562 44.7397C9.98466 44.2101 8.8232 43.4932 7.66522 42.3369C6.50724 41.1788 5.7937 40.014 5.26245 38.6459C4.74683 37.3178 4.39787 35.8057 4.2937 33.5886C4.19474 31.3663 4.1687 30.6599 4.1687 25.0001C4.1687 19.3404 4.18953 18.6338 4.2937 16.4115C4.39612 14.1928 4.74683 12.6824 5.26245 11.3542C5.79195 9.98273 6.50724 8.82127 7.66522 7.66327C8.8232 6.50529 9.98641 5.79175 11.3562 5.2605C12.6843 4.74487 14.1947 4.39591 16.4135 4.29175C18.6357 4.19279 19.3423 4.16675 25.0021 4.16675Z" fill="#54BCBF"/>
</svg>
