<svg width="50" height="50" viewBox="0 0 50 50" fill="none" xmlns="http://www.w3.org/2000/svg">
<path d="M8.33529 6.25H41.6686C42.8193 6.25 43.752 7.18275 43.752 8.33333V41.6667C43.752 42.8173 42.8193 43.75 41.6686 43.75H8.33529C7.18468 43.75 6.25195 42.8173 6.25195 41.6667V8.33333C6.25195 7.18275 7.18468 6.25 8.33529 6.25ZM10.4186 10.4167V39.5833H39.5853V10.4167H10.4186ZM15.6269 18.75C13.9011 18.75 12.502 17.3509 12.502 15.625C12.502 13.8991 13.9011 12.5 15.6269 12.5C17.3528 12.5 18.7519 13.8991 18.7519 15.625C18.7519 17.3509 17.3528 18.75 15.6269 18.75ZM13.5436 20.8333H17.7103V36.4583H13.5436V20.8333ZM25.002 21.7281C26.2195 20.5528 27.6384 19.7917 29.1687 19.7917C33.4832 19.7917 36.4603 23.2894 36.4603 27.6042V36.4583H32.2936V27.6042C32.2936 25.5906 30.6614 23.9583 28.6478 23.9583C26.6343 23.9583 25.002 25.5906 25.002 27.6042V36.4583H20.8353V20.8333H25.002V21.7281Z" fill="#54BCBF"/>
</svg>
