<svg width="130" height="130" viewBox="0 0 130 130" fill="none" xmlns="http://www.w3.org/2000/svg">
<path d="M113.75 71.7287V108.333H119.167V119.167H10.8333V108.333H16.25V71.7287C9.71751 67.3563 5.41663 59.9095 5.41663 51.4584C5.41663 46.9781 6.63229 42.6629 8.84657 38.9863L23.537 13.5417C24.5046 11.8658 26.2928 10.8334 28.2279 10.8334H101.772C103.707 10.8334 105.495 11.8658 106.463 13.5417L121.103 38.901C123.368 42.6629 124.583 46.9781 124.583 51.4584C124.583 59.9095 120.282 67.3563 113.75 71.7287ZM102.917 75.6845C102.027 75.7831 101.124 75.8334 100.208 75.8334C93.3881 75.8334 87.0939 73.0059 82.6041 68.3216C78.1142 73.0059 71.82 75.8334 64.9999 75.8334C58.1798 75.8334 51.8856 73.0059 47.3958 68.3216C42.9059 73.0059 36.6118 75.8334 29.7916 75.8334C28.8762 75.8334 27.9725 75.7831 27.0833 75.6845V108.333H102.917V75.6845ZM31.3551 21.6667L18.1782 44.4883C16.9221 46.5749 16.25 48.9608 16.25 51.4584C16.25 58.9372 22.3128 65.0001 29.7916 65.0001C35.376 65.0001 40.3252 61.5892 42.368 56.4932C44.1859 51.958 50.6057 51.958 52.4236 56.4932C54.4661 61.5892 59.4153 65.0001 64.9999 65.0001C70.5845 65.0001 75.5337 61.5892 77.5763 56.4932C79.3942 51.958 85.814 51.958 87.6318 56.4932C89.6744 61.5892 94.6236 65.0001 100.208 65.0001C107.687 65.0001 113.75 58.9372 113.75 51.4584C113.75 48.9608 113.078 46.5749 111.771 44.403L98.6444 21.6667H31.3551Z" fill="#54BCBF"/>
</svg>
