<svg width="50" height="50" viewBox="0 0 50 50" fill="none" xmlns="http://www.w3.org/2000/svg">
<path d="M19.5116 22.2544C21.4625 25.685 24.315 28.5375 27.7456 30.4883L29.5883 27.9085C30.201 27.051 31.3575 26.786 32.2825 27.2913C35.2133 28.8923 38.4523 29.8652 41.831 30.1327C42.9146 30.2185 43.75 31.1227 43.75 32.2096V41.5071C43.75 42.5752 42.9421 43.4702 41.8796 43.5794C40.7756 43.6929 39.6619 43.75 38.5417 43.75C20.7075 43.75 6.25 29.2925 6.25 11.4583C6.25 10.3381 6.30713 9.2244 6.4206 8.12033C6.52979 7.05781 7.42488 6.25 8.49302 6.25H17.7905C18.8773 6.25 19.7815 7.0855 19.8673 8.16894C20.1347 11.5477 21.1077 14.7867 22.7087 17.7176C23.214 18.6425 22.949 19.799 22.0915 20.4116L19.5116 22.2544ZM14.2589 20.8858L18.2171 18.0585C17.0947 15.6357 16.3256 13.0663 15.9318 10.4167H10.4356C10.423 10.7632 10.4167 11.1104 10.4167 11.4583C10.4167 26.9912 23.0087 39.5833 38.5417 39.5833C38.8896 39.5833 39.2369 39.5771 39.5833 39.5644V34.0681C36.9337 33.6744 34.3644 32.9052 31.9415 31.7829L29.1142 35.7412C27.9704 35.2969 26.8658 34.774 25.8071 34.1794L25.686 34.1104C21.6035 31.789 18.2111 28.3965 15.8896 24.314L15.8207 24.1929C15.226 23.1342 14.7032 22.0296 14.2589 20.8858Z" fill="#54BCBF"/>
</svg>
