<svg width="50" height="50" viewBox="0 0 50 50" fill="none" xmlns="http://www.w3.org/2000/svg">
<rect width="50" height="50" rx="10" fill="#54BCBF"/>
<path d="M37.5647 34.6183L46.4869 43.5406L43.5407 46.4868L34.6184 37.5645C31.4103 40.1312 27.3417 41.6666 22.9167 41.6666C12.5667 41.6666 4.16675 33.2666 4.16675 22.9166C4.16675 12.5666 12.5667 4.16663 22.9167 4.16663C33.2667 4.16663 41.6667 12.5666 41.6667 22.9166C41.6667 27.3416 40.1313 31.4102 37.5647 34.6183ZM33.3849 33.0724C35.9324 30.447 37.5001 26.8658 37.5001 22.9166C37.5001 14.8593 30.974 8.33329 22.9167 8.33329C14.8595 8.33329 8.33341 14.8593 8.33341 22.9166C8.33341 30.9739 14.8595 37.4999 22.9167 37.4999C26.8659 37.4999 30.4472 35.9322 33.0726 33.3847L33.3849 33.0724Z" fill="black"/>
</svg>
