<svg width="50" height="50" viewBox="0 0 50 50" fill="none" xmlns="http://www.w3.org/2000/svg">
<path d="M22.9175 4.16675V17.5292C22.0723 17.3732 21.2017 17.2917 20.3133 17.2917C12.4318 17.2917 6.04248 23.6809 6.04248 31.5626C6.04248 39.4442 12.4318 45.8334 20.3133 45.8334C28.1948 45.8334 34.5842 39.4442 34.5842 31.5626V23.7784C36.7429 24.6957 39.0962 25.2084 41.6677 25.2084H43.751V13.5417H41.6677C37.7012 13.5417 34.5842 10.3388 34.5842 6.25008V4.16675H22.9175ZM27.0842 8.33341H30.6C31.4204 12.9586 34.9319 16.6586 39.5844 17.519V20.8922C37.4217 20.5751 35.4694 19.7635 33.6598 18.5522L30.4175 16.3819V31.5626C30.4175 37.143 25.8937 41.6667 20.3133 41.6667C14.7329 41.6667 10.2091 37.143 10.2091 31.5626C10.2091 25.9822 14.7329 21.4584 20.3133 21.4584C20.4881 21.4584 20.6619 21.4628 20.8344 21.4715V24.8115C20.6624 24.7984 20.4886 24.7917 20.3133 24.7917C16.5739 24.7917 13.5425 27.8232 13.5425 31.5626C13.5425 35.302 16.5739 38.3334 20.3133 38.3334C24.0527 38.3334 27.0842 35.302 27.0842 31.5626C27.0842 23.8197 27.0817 16.0764 27.0842 8.33341ZM17.7091 31.5626C17.7091 30.1242 18.8751 28.9584 20.3133 28.9584C21.7515 28.9584 22.9175 30.1242 22.9175 31.5626C22.9175 33.0009 21.7515 34.1667 20.3133 34.1667C18.8751 34.1667 17.7091 33.0009 17.7091 31.5626Z" fill="#54BCBF"/>
</svg>
