<svg version="1.1" viewBox="0 0 594.99 158.74" xmlns="http://www.w3.org/2000/svg" xmlns:xlink="http://www.w3.org/1999/xlink">
	<defs>
		<path id="x" d="m0 0c-4.282 0-7.637-3.322-7.637-7.562 0-4.087 3.359-7.414 7.488-7.414 1.284 0 2.693 0.378 3.773 1.01l0.088 0.052v2.567l-0.297-0.266a5.443 5.443 0 0 0-3.62-1.406c-2.937 0-5.326 2.474-5.326 5.513 0 3.06 2.406 5.55 5.363 5.55 1.307 0 2.646-0.498 3.583-1.332l0.297-0.264v2.526l-0.086 0.052c-1.037 0.637-2.291 0.974-3.626 0.974" clip-path="url(#a)"/>
	</defs>
	<defs>
		<clipPath id="b">
			<path d="m-293.93 73.175h525.54v-198.42h-525.54z"/>
		</clipPath>
		<clipPath id="c">
			<path d="m-152.8 57.795h525.54v-198.42h-525.54z"/>
		</clipPath>
		<clipPath id="d">
			<path d="m-53.095 54.145h525.54v-198.42h-525.54z"/>
		</clipPath>
		<clipPath id="e">
			<path d="m-104.92 103.19h525.54v-198.42h-525.54z"/>
		</clipPath>
		<clipPath id="f">
			<path d="m-201.98 101.35h525.54v-198.42h-525.54z"/>
		</clipPath>
		<clipPath id="g">
			<path d="m-456.27 89.835h525.54v-198.42h-525.54z"/>
		</clipPath>
		<clipPath id="h">
			<path d="m-412.53 79.585h525.54v-198.42h-525.54z"/>
		</clipPath>
		<clipPath id="i">
			<path d="m-230 94.935h525.54v-198.42h-525.54z"/>
		</clipPath>
		<clipPath id="j">
			<path d="m-483.18 92.755h525.54v-198.42h-525.54z"/>
		</clipPath>
		<clipPath id="k">
			<path d="m-332.64 77.425h525.54v-198.42h-525.54z"/>
		</clipPath>
		<clipPath id="l">
			<path d="m-379.93 99.371h525.54v-198.42h-525.54z"/>
		</clipPath>
		<clipPath id="m">
			<path d="m-49.629 143.76h525.54v-198.42h-525.54z"/>
		</clipPath>
		<clipPath id="n">
			<path d="m-70.521 149.72h525.54v-198.42h-525.54z"/>
		</clipPath>
		<clipPath id="o">
			<path d="m-88.415 156.75h525.54v-198.42h-525.54z"/>
		</clipPath>
		<clipPath id="p">
			<path d="m-110.81 143.76h525.54v-198.42h-525.54z"/>
		</clipPath>
		<clipPath id="q">
			<path d="m-128.92 156.75h525.54v-198.42h-525.54z"/>
		</clipPath>
		<clipPath id="r">
			<path d="m-146.07 144.06h525.54v-198.42h-525.54z"/>
		</clipPath>
		<clipPath id="s">
			<path d="m-164.05 147.92h525.54v-198.42h-525.54z"/>
		</clipPath>
		<clipPath id="t">
			<path d="m-176.55 146.02h525.54v-198.42h-525.54z"/>
		</clipPath>
		<clipPath id="u">
			<path d="M 0,198.425 H 525.543 V 0 H 0 Z"/>
		</clipPath>
		<clipPath id="v">
			<path d="m-208.11 158.44h525.54v-198.42h-525.54z"/>
		</clipPath>
		<clipPath id="w">
			<path d="m-231.65 148.31h525.54v-198.42h-525.54z"/>
		</clipPath>
		<clipPath id="a">
			<path d="m-268.14 143.76h525.54v-198.42h-525.54z"/>
		</clipPath>
		<clipPath id="y">
			<path d="m-285.16 147.92h525.54v-198.42h-525.54z"/>
		</clipPath>
		<clipPath id="z">
			<path d="m-305.74 143.76h525.54v-198.42h-525.54z"/>
		</clipPath>
		<clipPath id="A">
			<path d="m-323.03 147.92h525.54v-198.42h-525.54z"/>
		</clipPath>
		<clipPath id="B">
			<path d="m-344.5 156.75h525.54v-198.42h-525.54z"/>
		</clipPath>
		<clipPath id="C">
			<path d="m-367.19 143.76h525.54v-198.42h-525.54z"/>
		</clipPath>
		<clipPath id="D">
			<path d="m-388.6 152.52h525.54v-198.42h-525.54z"/>
		</clipPath>
		<clipPath id="E">
			<path d="m-403.88 144.06h525.54v-198.42h-525.54z"/>
		</clipPath>
		<clipPath id="F">
			<path d="m-416.32 146.02h525.54v-198.42h-525.54z"/>
		</clipPath>
		<clipPath id="G">
			<path d="m-434.91 158.44h525.54v-198.42h-525.54z"/>
		</clipPath>
		<clipPath id="H">
			<path d="m-461.44 152.52h525.54v-198.42h-525.54z"/>
		</clipPath>
		<clipPath id="I">
			<path d="m-480.41 148.31h525.54v-198.42h-525.54z"/>
		</clipPath>
	</defs>
  <g fill="#2D190D">
	<path transform="matrix(1.3333 0 0 -1.3333 339.05 44.647)" d="m0 0a26.199 26.199 0 0 1-8.583 2.914v0.183c1.726 0.378 3.437 1.093 5.122 2.142 1.696 1.055 3.101 2.492 4.226 4.304 1.131 1.814 1.714 4.046 1.753 6.681-0.09 3.347-1.112 6.299-3.074 8.886-1.949 2.595-4.289 4.636-7.006 6.116-2.733 1.487-5.312 2.234-7.746 2.26l-33.308-0.071v-1.314s1.722-7e-3 3.48-0.269c2.378-0.357 4.585-1.77 4.585-4.198 0.012-1.824 0.124-50.785 0.124-53.144 0.014-3.381-3.5-5.321-5.779-5.687-2.189-0.357-6.978-0.364-7.832-0.399l0.012-1.304s40.066 0.093 42.744 0.073c6.266 0.022 11.161 1.555 14.893 4.786 3.741 3.216 5.632 7.973 5.708 14.251-0.063 3.061-0.95 5.772-2.67 8.097-1.71 2.335-3.941 4.232-6.649 5.693m-22.778 32.162c2.935 0.108 6.971-1.593 9.524-4.49 2.55-2.897 3.864-6.601 3.981-11.104 0.025-3.807-0.89-6.92-2.79-9.311-1.869-2.391-4.759-3.638-8.686-3.724h-5.339c-1.091-0.013-2.066 0.076-2.891 0.274 0 0-0.056 21.263-0.056 23.477-0.017 2.804 2.868 4.762 6.257 4.878m18.688-55.386c-1.086-2.41-2.57-4.412-4.471-5.955-1.899-1.569-4.098-2.389-6.58-2.445l-4.315-8e-3c-2.723-0.07-4.978 0.383-6.724 1.382-1.749 0.997-2.671 2.961-2.735 5.889l-0.064 26.574 11.326 0.016c3.213-0.062 5.96-1.027 8.215-2.884 2.265-1.854 3.975-4.155 5.17-6.886 1.185-2.737 1.804-5.448 1.808-8.151a18.485 18.485 0 0 0-1.63-7.532" clip-path="url(#b)"/>
	<path transform="matrix(1.3333 0 0 -1.3333 150.87 24.141)" d="m0 0c-0.029 2.151 0.196 4.059 0.672 5.748 0.489 1.683 1.406 2.559 2.776 2.655 1.02-0.049 1.821-0.547 2.394-1.495 0.569-0.96 0.969-2.096 1.203-3.42 0.231-1.311 0.344-2.532 0.337-3.672l6.433 2.985c-0.603 2.048-1.61 3.701-3.038 4.965-1.433 1.258-3.309 1.915-5.643 1.944-2.338-0.057-4.554-1.082-6.621-3.074-2.082-1.989-3.777-4.593-5.09-7.817-1.297-3.234-1.976-5.362-2.013-9.123l-0.014-1.914h-14.424l-0.032 12.218c-0.032 2.151 0.192 4.059 0.679 5.748 0.479 1.683 1.399 2.559 2.768 2.655 1.026-0.049 1.811-0.547 2.387-1.495 0.574-0.96 0.977-2.096 1.213-3.42 0.221-1.311 0.335-2.532 0.327-3.672l6.445 2.985c-0.606 2.048-1.62 3.701-3.051 4.965-1.437 1.258-3.312 1.915-5.636 1.944-2.348-0.057-4.556-1.082-6.637-3.074-2.068-1.989-3.761-4.593-5.065-7.817-1.312-3.234-1.983-5.362-2.027-9.123l-0.012-1.914h-4.728l-0.824-1.618h5.564v-28.48c-0.049-1.91-0.651-3.203-1.807-3.854-1.158-0.657-6.186-0.952-7.869-0.908v-1.311h51.031v1.311c-2.714 0.033-6.388 0.403-7.722 1.111-1.318 0.721-1.988 2.112-1.976 4.208v27.923h15.769l0.816 1.618h-16.597zm-8.59-42.316c-0.058-1.91-0.651-3.203-1.809-3.854-1.124-0.632-2.481-0.94-4.092-0.911l-0.541 3e-3c-2.714 0.033-4.72 0.403-6.049 1.111-1.332 0.721-1.986 2.112-1.979 4.208l0.032 27.923h14.438z" clip-path="url(#c)"/>
	<path transform="matrix(1.3333 0 0 -1.3333 17.928 19.277)" d="m0 0c1.391 0 2.562-0.13 3.477-0.384 1.02-0.376 1.98-1.284 2.896-2.661 0.906-1.394 1.432-2.919 1.493-4.568l-0.022-52.914c0.116-4.092-1.601-6.233-5.193-6.216-2.752 0.116-4.232 1.591-4.34 4.334l-0.18 5.981c-0.052 1.901-0.581 3.383-1.534 4.465-0.952 1.076-2.342 1.636-4.21 1.656-1.429 7e-3 -2.732-0.503-3.932-1.547-1.173-1.038-1.83-2.66-1.9-4.943-0.028-1.471 0.436-3.031 1.376-4.691 0.941-1.631 2.459-3.055 4.587-4.23 2.101-1.186 4.914-1.797 8.453-1.862 5.729 0.045 9.29 1.621 12.372 4.71 3.07 3.077 4.644 7.43 4.672 13.079l0.026 42.196c0.062 1.647 0.572 3.156 1.479 4.55 0.912 1.377 1.876 2.285 2.894 2.661 0.91 0.254 2.082 0.384 3.474 0.384v1.057h-25.888z" clip-path="url(#d)"/>
	<path transform="matrix(1.3333 0 0 -1.3333 87.026 84.665)" d="m0 0c-2.246-1.655-5.039-2.491-8.391-2.516-1.384-0.05-2.618 0.262-3.718 0.918-1.088 0.652-1.957 1.951-2.586 3.887-0.642 1.952-0.972 4.823-0.992 8.642-8e-3 0.843 0.012 1.646 0.05 2.422h-9e-3v1.312h0.099c0.202 2.288 0.626 4.258 1.285 5.897 0.988 2.465 2.788 3.739 5.399 3.813 1.745-0.056 3.113-0.834 4.106-2.316 0.979-1.497 1.484-3.365 1.501-5.622a9.298 9.298 0 0 0-0.197-1.772h-12.094a32.871 32.871 0 0 1-0.09-1.312h22.185c-0.333 1.981-1.119 3.902-2.354 5.776-1.229 1.865-2.944 3.418-5.166 4.641-2.221 1.232-4.974 1.87-8.255 1.912-4.763-0.088-8.619-1.479-11.588-4.184-2.961-2.715-4.484-6.24-4.577-10.567 0.093-4.334 1.616-7.852 4.577-10.57 2.969-2.703 6.825-4.098 11.588-4.192 3.657 0 6.812 0.874 9.451 2.623 2.638 1.747 4.613 4.394 5.955 7.943l-0.94 0.267c-1.254-3.012-2.998-5.343-5.239-7.002" clip-path="url(#e)"/>
	<path transform="matrix(1.3333 0 0 -1.3333 216.45 82.215)" d="m0 0v31.906c-0.789-0.264-1.798-0.448-3.015-0.584a33.413 33.413 0 0 0-3.52-0.189h-4.467v-0.908c1.262 0.028 2.314-0.202 3.157-0.704 0.841-0.487 1.276-1.397 1.31-2.723v-13.663a9.266 9.266 0 0 1-2.445 1.375c-0.871 0.333-1.908 0.494-3.124 0.508-1.789-0.016-3.461-0.461-4.989-1.349a10.258 10.258 0 0 1-3.711-3.606c-0.944-1.541-1.425-3.3-1.457-5.273 0.032-1.983 0.513-3.742 1.457-5.265 0.94-1.536 2.174-2.74 3.711-3.608 1.528-0.891 3.2-1.338 4.989-1.35 1.425 0.033 2.556 0.243 3.389 0.632a18.3 18.3 0 0 1 2.111 1.18l0.263-1.296h11.197v0.906c-1.615-0.052-2.833 0.181-3.639 0.7-0.818 0.515-1.217 1.616-1.217 3.311m-6.535-1.612c-0.069-0.753-0.541-1.412-1.415-1.998-0.871-0.579-1.756-0.884-2.662-0.92-0.871-0.034-1.649 0.177-2.325 0.634-0.681 0.461-1.216 1.358-1.607 2.704-0.39 1.335-0.596 3.342-0.596 5.982 0 2.637 0.206 4.636 0.596 5.979 0.391 1.355 0.926 2.25 1.607 2.703 0.676 0.46 1.454 0.669 2.325 0.636 0.906-0.034 1.791-0.337 2.662-0.923 0.874-0.58 1.346-1.248 1.415-1.99z" clip-path="url(#f)"/>
	<path transform="matrix(1.3333 0 0 -1.3333 555.49 66.865)" d="m0 0c-0.332 1.981-1.115 3.902-2.339 5.776-1.241 1.865-2.949 3.418-5.176 4.641-2.223 1.232-4.974 1.87-8.266 1.912-4.758-0.088-8.615-1.479-11.572-4.184-2.965-2.715-4.49-6.24-4.571-10.567 0.081-4.334 1.606-7.852 4.571-10.57 2.957-2.703 6.814-4.098 11.572-4.192 3.674 0 6.826 0.874 9.455 2.623 2.638 1.747 4.621 4.394 5.967 7.943l-0.946 0.267c-1.25-3.012-2.998-5.343-5.244-7.002-2.242-1.655-5.031-2.491-8.396-2.516-1.376-0.05-2.614 0.262-3.702 0.918-1.096 0.652-1.968 1.951-2.601 3.887-0.635 1.952-0.952 4.823-0.981 8.642 0 0.838 0 1.642 0.043 2.422zm-20.82 7.209c0.995 2.465 2.802 3.739 5.404 3.812 1.755-0.055 3.126-0.833 4.11-2.315 0.983-1.497 1.478-3.365 1.51-5.623a13.21 13.21 0 0 0-0.195-1.771h-12.112c0.206 2.292 0.643 4.253 1.283 5.897" clip-path="url(#g)"/>
	<path transform="matrix(1.3333 0 0 -1.3333 497.19 53.205)" d="m0 0c1.146-0.093 2.084-0.442 2.802-1.077 0.806-0.713 1.32-1.102 1.581-1.174 0.576 0.092 1.359 0.543 2.331 1.381 0.972 0.82 1.5 1.454 1.605 1.913-0.042 0.626-0.538 1.225-1.505 1.812-0.946 0.591-2.118 0.911-3.504 0.944-1.498-0.033-2.702-0.411-3.597-1.119a22.824 22.824 0 0 1-2.62-2.408c-2.066 1.175-4.332 1.705-6.839 1.596-3.643-0.121-6.608-1.332-8.867-3.644-2.281-2.301-3.448-4.921-3.518-7.882 0.018-2.242 0.639-4.216 1.852-5.905 1.222-1.678 2.876-3.066 5.029-4.154l-3.442-3.874a21.158 21.158 0 0 1-2.615-3.421c-0.716-1.188-1.103-2.331-1.158-3.41 0.042-0.8 0.271-1.455 0.706-1.975 0.438-0.525 0.871-0.892 1.355-1.112l-4.62-5.166a8.884 8.884 0 0 1-0.796-1.133 3.223 3.223 0 0 1-0.492-1.516c0.028-0.551 0.468-1.264 1.342-2.125 0.862-0.853 2.069-1.746 3.574-2.686 2.279-1.345 4.58-2.198 6.909-2.585 2.339-0.384 5.205-0.554 8.591-0.52 2.306 0.013 4.521 0.504 6.678 1.477 2.162 0.975 3.946 2.384 5.345 4.262 1.412 1.869 2.147 4.168 2.192 6.873-0.121 2.966-1.178 5.285-3.153 6.95-1.991 1.682-4.135 2.532-6.447 2.549a76.183 76.183 0 0 1-6.58-0.367c-2.108-0.232-3.868-0.354-5.306-0.385a8.047 8.047 0 0 0-2.828 0.402c-0.911 0.318-1.408 1.055-1.483 2.198 0.052 0.548 0.435 1.344 1.14 2.382a25.034 25.034 0 0 0 2.114 2.782 11.638 11.638 0 0 1 4.26-0.864c4.351 0.111 7.657 1.285 9.933 3.521 2.275 2.231 3.418 4.868 3.428 7.912-0.043 2.036-0.568 3.861-1.585 5.462-1.03 1.595-2.265 2.912-3.746 3.984 0.428 0.088 1.074 0.123 1.934 0.102m-16.62-35.322a14.99 14.99 0 0 1 3.552-0.429c1.658 0.031 3.3 0.157 4.928 0.38 1.637 0.218 3.283 0.341 4.929 0.373 2.073 0.046 3.746-0.287 5.023-0.964 1.278-0.689 1.917-1.983 1.959-3.875-0.056-2.733-0.983-4.778-2.764-6.137-1.783-1.353-4.043-2.021-6.791-2.021-4.1 0.135-7.464 1.463-10.094 4.008-2.614 2.529-3.975 5.448-4.054 8.747 0.02 0.444 0.079 0.845 0.246 1.198 0.872-0.576 1.909-1.011 3.066-1.28m10.202 17.425c-0.651-1.345-1.641-1.968-3.003-1.842-1.347-0.126-2.343 0.497-3.001 1.842-0.666 1.337-0.979 4.129-0.979 8.349 0 4.215 0.313 7 0.979 8.343 0.658 1.347 1.654 1.961 3.001 1.85 1.362 0.111 2.352-0.503 3.003-1.85 0.652-1.343 0.997-4.128 0.981-8.343 0.016-4.22-0.329-7.012-0.981-8.349" clip-path="url(#h)"/>
	<path transform="matrix(1.3333 0 0 -1.3333 253.81 73.665)" d="m0 0c-0.237 1.364-0.779 2.706-1.626 3.996-0.857 1.293-2.048 2.365-3.595 3.224-1.531 0.848-3.437 1.288-5.723 1.318-3.296-0.052-5.969-1.022-8.025-2.901-2.044-1.873-3.106-4.322-3.17-7.328 0.064-3.001 1.126-5.429 3.17-7.309 2.056-1.885 4.729-2.849 8.025-2.909 2.542-8e-3 4.727 0.598 6.557 1.813 1.823 1.212 3.204 3.045 4.129 5.499l-0.654 0.203c-0.864-2.1-2.078-3.709-3.628-4.874-1.565-1.136-3.496-1.712-5.817-1.733-0.954-0.033-1.819 0.175-2.572 0.629-0.76 0.452-1.358 1.358-1.806 2.703-0.439 1.344-0.663 3.34-0.67 5.978-9e-3 0.586-9e-3 1.152 0.02 1.691zm-14.427 4.979c0.687 1.722 1.931 2.606 3.75 2.653 1.204-0.045 2.152-0.576 2.836-1.609 0.685-1.035 1.028-2.332 1.034-3.89a6.814 6.814 0 0 0-0.123-1.237h-8.399c0.147 1.6 0.447 2.964 0.902 4.083" clip-path="url(#i)"/>
	<path transform="matrix(1.3333 0 0 -1.3333 591.37 70.755)" d="m0 0c-1.722 1.334-3.729 2.416-6.01 3.213-2.264 0.803-4.272 1.704-5.995 2.699-1.723 0.991-2.641 2.463-2.731 4.378 0.01 1.049 0.469 1.933 1.342 2.633 0.886 0.709 2.152 1.072 3.8 1.097 1.891-0.041 3.517-0.592 4.899-1.664a14.39 14.39 0 0 0 3.517-3.952c0.962-1.553 1.778-3.119 2.41-4.652h1.315l-1.971 11.765c-0.717-0.316-1.361-0.566-1.977-0.709-0.581-0.152-1.268-0.23-2.03-0.23-0.95 0.039-2.086 0.159-3.437 0.373-1.336 0.229-2.528 0.35-3.571 0.38-2.899 0.013-5.207-0.707-6.938-2.159-1.754-1.452-2.635-3.685-2.678-6.717 0.088-2.673 0.984-4.708 2.721-6.108 1.707-1.404 3.702-2.501 5.971-3.309 2.257-0.798 4.236-1.631 5.962-2.519 1.722-0.868 2.618-2.124 2.698-3.752-0.015-0.959-0.495-1.805-1.424-2.513-0.922-0.716-2.124-1.086-3.6-1.118-1.91 0.047-3.688 0.637-5.346 1.784a19.501 19.501 0 0 0-4.347 4.113c-1.243 1.622-2.223 3.162-2.909 4.644l-1.596-0.369c0.229-1.161 0.486-2.483 0.768-3.97l0.807-4.195 0.579-3.042c0.067-0.341 0.197-0.491 0.375-0.463 0.346 0.047 0.909 0.249 1.709 0.611 0.8 0.345 1.444 0.549 1.924 0.601 2.166-0.043 3.784-0.211 4.885-0.513a14.353 14.353 0 0 1 3.333-0.509c3.372 0.07 5.932 0.896 7.661 2.49 1.726 1.593 2.599 3.498 2.604 5.725-0.082 2.624-0.993 4.599-2.72 5.957" clip-path="url(#j)"/>
	<path transform="matrix(1.3333 0 0 -1.3333 390.66 50.315)" d="m0 0c-1.128-0.03-2.225-0.322-3.295-0.886a13.86 13.86 0 0 1-2.865-2.005l-2.529-2.338v4.575c-1.385-0.232-3.138-0.418-5.263-0.549a97.09 97.09 0 0 0-6.028-0.191h-2.994v-1.404h2.162c0.941-0.028 1.723-0.345 2.33-0.956 0.598-0.607 0.903-1.339 0.931-2.208v-18.233c-0.055-1.353-0.625-2.243-1.666-2.677-1.065-0.428-2.242-0.62-3.564-0.576v-1.311h19.237v1.311h-1.401c-1.505 0.015-2.51 0.358-3.023 1.012-0.511 0.659-0.754 1.539-0.721 2.625v16.994l3.836 3.461c0.707 0.631 1.336 0.94 1.868 0.925 0.805-0.047 1.298-0.556 1.495-1.5 0.198-0.951 0.325-2.038 0.367-3.254 0.06-1.267 0.328-2.378 0.785-3.342 0.469-0.962 1.369-1.472 2.668-1.519 1.374 0.055 2.394 0.557 3.087 1.512 0.678 0.944 1.028 2.036 1.028 3.251-6e-3 2.263-0.549 4.039-1.638 5.325-1.097 1.284-2.694 1.938-4.807 1.958" clip-path="url(#k)"/>
	<path transform="matrix(1.3333 0 0 -1.3333 453.71 79.575)" d="m0 0v21.949c-1.205-0.239-2.813-0.42-4.81-0.548-2-0.126-3.874-0.204-5.646-0.204h-4.676v-1.299c1.804 0.086 3.232-0.226 4.273-0.948 1.064-0.722 1.598-2.356 1.613-4.931v-13.179l-2.51-2.977a8.862 8.862 0 0 0-2.807-2.167 7.796 7.796 0 0 0-3.367-0.823c-1.55 0.055-2.706 0.666-3.485 1.8-0.778 1.127-1.177 2.428-1.177 3.893v21.383c-1.322-0.239-3.002-0.42-5.027-0.548-2.042-0.126-3.786-0.204-5.255-0.204h-4.752v-1.299c1.538 0.037 2.87-0.264 3.97-0.923 1.096-0.659 1.673-1.975 1.727-3.938v-10.177c0.017-3.534 1.018-6.475 3.021-8.799 1.963-2.328 4.806-3.533 8.456-3.614 2.194 0.025 4.202 0.627 6.026 1.789 1.825 1.174 3.453 2.753 4.896 4.75h0.181v-6.539c1.007 0.148 2.218 0.305 3.669 0.479a41.77 41.77 0 0 0 4.002 0.264h7.937v1.311c-2.507 0.016-4.196 0.526-5.052 1.527-0.867 0.994-1.265 2.316-1.207 3.972" clip-path="url(#l)"/>
	<path transform="matrix(1.3333 0 0 -1.3333 13.307 138.77)" d="m0 0c-4.282 0-7.637-3.322-7.637-7.562 0-4.087 3.359-7.414 7.488-7.414 1.284 0 2.693 0.378 3.773 1.01l0.088 0.052v2.567l-0.297-0.266a5.441 5.441 0 0 0-3.62-1.406c-2.936 0-5.326 2.474-5.326 5.513 0 3.06 2.406 5.55 5.364 5.55 1.306 0 2.645-0.498 3.582-1.332l0.297-0.264v2.526l-0.086 0.052c-1.037 0.637-2.291 0.974-3.626 0.974" clip-path="url(#m)"/>
	<path transform="matrix(1.3333 0 0 -1.3333 41.164 146.7)" d="m0 0h-6.32v5.654h-2.105v-14.38h2.105v6.732h6.32v-6.732h2.105v14.38h-2.105z" clip-path="url(#n)"/>
	<path transform="matrix(1.3333 0 0 -1.3333 65.026 156.07)" d="m0 0c-2.988 0-5.419 2.464-5.419 5.494 0 3.133 2.329 5.494 5.419 5.494s5.42-2.361 5.42-5.494c0-3.03-2.431-5.494-5.42-5.494m0 12.982c-4.149 0-7.524-3.359-7.524-7.488 0-4.198 3.305-7.488 7.524-7.488 4.22 0 7.525 3.29 7.525 7.488 0 4.129-3.376 7.488-7.525 7.488" clip-path="url(#o)"/>
	<path transform="matrix(1.3333 0 0 -1.3333 94.886 138.77)" d="m0 0c-4.282 0-7.637-3.322-7.637-7.562 0-4.087 3.359-7.414 7.488-7.414 1.283 0 2.693 0.378 3.773 1.01l0.088 0.052v2.567l-0.297-0.266a5.443 5.443 0 0 0-3.62-1.406c-2.937 0-5.326 2.474-5.326 5.513 0 3.06 2.406 5.55 5.364 5.55 1.306 0 2.644-0.498 3.582-1.332l0.297-0.264v2.526l-0.086 0.052c-1.037 0.637-2.291 0.974-3.626 0.974" clip-path="url(#p)"/>
	<path transform="matrix(1.3333 0 0 -1.3333 119.03 156.07)" d="m0 0c-2.988 0-5.419 2.464-5.419 5.494 0 3.133 2.329 5.494 5.419 5.494s5.42-2.361 5.42-5.494c0-3.03-2.431-5.494-5.42-5.494m0 12.982c-4.148 0-7.524-3.359-7.524-7.488 0-4.198 3.305-7.488 7.524-7.488 4.22 0 7.525 3.29 7.525 7.488 0 4.129-3.376 7.488-7.525 7.488" clip-path="url(#q)"/>
	<path transform="matrix(1.3333 0 0 -1.3333 141.9 139.16)" d="m0 0h-2.105v-14.38h6.364v1.956h-4.259z" clip-path="url(#r)"/>
	<path transform="matrix(1.3333 0 0 -1.3333 165.87 144.31)" d="m0 0 2.219-5.05h-4.437zm-6.974-10.522h2.272l1.6 3.515h6.204l1.6-3.515h2.272l-6.974 15.226z" clip-path="url(#s)"/>
	<path transform="matrix(1.3333 0 0 -1.3333 182.53 141.77)" d="m0 0h3.329v-12.423h2.106v12.423h3.328v1.957h-8.763z" clip-path="url(#t)"/>
	<path transform="matrix(1.3333 0 0 -1.3333 -52.864 211.65)" d="m194.83 39.983h2.105v14.38h-2.105z" clip-path="url(#u)"/>
	<path transform="matrix(1.3333 0 0 -1.3333 224.62 158.34)" d="m0 0h7.89v1.957h-5.785v4.943h5.617v1.957h-5.617v3.566h5.785v1.957h-7.89z" clip-path="url(#v)"/>
	<path transform="matrix(1.3333 0 0 -1.3333 256 144.83)" d="m0 0c0-2.117-1.893-2.388-3.542-2.388h-0.378v4.72h0.286c2.479 0 3.634-0.741 3.634-2.332m1.994 0.074c0 1.462-0.74 2.802-1.932 3.503-1.189 0.674-2.631 0.674-3.789 0.674h-2.299v-14.38h2.106v5.933h0.453l4.129-5.933h2.564l-4.461 6.147c1.915 0.366 3.229 1.993 3.229 4.056" clip-path="url(#w)"/>
	<use transform="matrix(1.3333 0 0 -1.3333 304.66 138.77)" clip-path="url(#a)" xlink:href="#x"/>
	<path transform="matrix(1.3333 0 0 -1.3333 327.35 144.31)" d="m0 0 2.219-5.05h-4.438zm-6.974-10.522h2.272l1.599 3.515h6.206l1.599-3.515h2.272l-6.974 15.226z" clip-path="url(#y)"/>
	<use transform="matrix(1.3333 0 0 -1.3333 354.79 138.77)" clip-path="url(#z)" xlink:href="#x"/>
	<path transform="matrix(1.3333 0 0 -1.3333 377.84 144.31)" d="m0 0 2.219-5.05h-4.438zm-6.974-10.522h2.272l1.6 3.515h6.205l1.599-3.515h2.272l-6.974 15.226z" clip-path="url(#A)"/>
	<path transform="matrix(1.3333 0 0 -1.3333 406.47 156.07)" d="m0 0c-2.988 0-5.419 2.464-5.419 5.494 0 3.133 2.329 5.494 5.419 5.494s5.42-2.361 5.42-5.494c0-3.03-2.432-5.494-5.42-5.494m0 12.982c-4.149 0-7.524-3.359-7.524-7.488 0-4.198 3.304-7.488 7.524-7.488s7.525 3.29 7.525 7.488c0 4.129-3.376 7.488-7.525 7.488" clip-path="url(#B)"/>
	<path transform="matrix(1.3333 0 0 -1.3333 436.72 138.77)" d="m0 0c-4.282 0-7.638-3.322-7.638-7.562 0-4.087 3.36-7.414 7.489-7.414 1.283 0 2.693 0.378 3.773 1.01l0.088 0.052v2.567l-0.298-0.266a5.438 5.438 0 0 0-3.619-1.406c-2.937 0-5.326 2.474-5.326 5.513 0 3.06 2.406 5.55 5.363 5.55 1.307 0 2.645-0.498 3.582-1.332l0.298-0.264v2.526l-0.086 0.052c-1.037 0.637-2.291 0.974-3.626 0.974" clip-path="url(#C)"/>
	<path transform="matrix(1.3333 0 0 -1.3333 465.27 150.43)" d="m0 0c0-2.846-1.05-4.23-3.207-4.23s-3.206 1.384-3.206 4.23v8.455h-2.106v-9.05c0-3.366 2.135-5.629 5.312-5.629s5.312 2.263 5.312 5.629v9.05h-2.105z" clip-path="url(#D)"/>
	<path transform="matrix(1.3333 0 0 -1.3333 485.64 139.16)" d="m0 0h-2.104v-14.38h6.364v1.956h-4.26z" clip-path="url(#E)"/>
	<path transform="matrix(1.3333 0 0 -1.3333 502.23 141.77)" d="m0 0h3.328v-12.423h2.107v12.423h3.328v1.957h-8.763z" clip-path="url(#F)"/>
	<path transform="matrix(1.3333 0 0 -1.3333 527.02 158.34)" d="m0 0h7.89v1.957h-5.785v4.943h5.618v1.957h-5.618v3.566h5.785v1.957h-7.89z" clip-path="url(#G)"/>
	<path transform="matrix(1.3333 0 0 -1.3333 562.4 150.43)" d="m0 0c0-2.846-1.049-4.23-3.206-4.23-2.158 0-3.206 1.384-3.206 4.23v8.455h-2.107v-9.05c0-3.366 2.135-5.629 5.313-5.629 3.177 0 5.311 2.263 5.311 5.629v9.05h-2.105z" clip-path="url(#H)"/>
	<path transform="matrix(1.3333 0 0 -1.3333 587.68 144.83)" d="m0 0c0-2.117-1.893-2.388-3.542-2.388h-0.379v4.72h0.287c2.479 0 3.634-0.741 3.634-2.332m-1.235-3.982c1.916 0.366 3.228 1.993 3.228 4.056 0 1.462-0.739 2.802-1.931 3.503-1.189 0.674-2.631 0.674-3.79 0.674h-2.297v-14.38h2.104v5.933h0.453l4.13-5.933h2.564z" clip-path="url(#I)"/>
</g>
</svg>
